<svg xmlns="http://www.w3.org/2000/svg" viewBox="0 0 512 512" role="img" aria-label="Idle Shroom icon">
  <rect width="512" height="512" rx="112" fill="#f8efe6"/>
  <path d="M74 373c42-45 95-68 158-68 80 0 143 25 206 71-22 39-79 62-170 62-92 0-157-22-194-65Z" fill="#96bd7d"/>
  <path d="M140 267c9-91 57-153 121-153 65 0 112 61 122 153-37 14-75 9-112-16-11-7-24-7-36 0-36 25-69 30-95 16Z" fill="#e97888"/>
  <path d="M169 271c22-85 62-127 120-127 37 0 67 16 91 48-20-61-64-96-121-96-70 0-123 56-137 156 11 9 27 15 47 19Z" fill="#f49aa4" opacity=".8"/>
  <circle cx="213" cy="186" r="28" fill="#fff6d7"/>
  <circle cx="291" cy="164" r="23" fill="#fff6d7"/>
  <circle cx="330" cy="230" r="18" fill="#fff6d7"/>
  <circle cx="173" cy="232" r="16" fill="#fff6d7"/>
  <path d="M206 260c8-18 25-28 51-28 28 0 46 10 54 30 10 26 12 73 5 139H198c-7-69-4-116 8-141Z" fill="#f6d7a8"/>
  <path d="M220 349c25 16 56 16 78 0" fill="none" stroke="#b6745c" stroke-width="12" stroke-linecap="round"/>
  <circle cx="231" cy="314" r="8" fill="#5c3e38"/>
  <circle cx="282" cy="314" r="8" fill="#5c3e38"/>
  <path d="M116 382c24-33 51-44 80-33M333 357c33-27 64-26 92 4" fill="none" stroke="#5d8d64" stroke-width="18" stroke-linecap="round"/>
</svg>
